<svg preserveAspectRatio="none" width="100%" height="100%" overflow="visible" style="display: block;" viewBox="0 0 18 18" fill="none" xmlns="http://www.w3.org/2000/svg">
<g id="Group">
<path id="Vector" d="M5.12175 7.20415C5.43914 6.88675 5.43914 6.37272 5.12175 6.05532L2.93819 3.87199C2.6208 3.55459 2.10706 3.55487 1.78939 3.87199C1.78376 3.8779 1.70881 3.9526 1.06531 4.5964L4.39763 7.92853L5.12175 7.20415Z" fill="var(--fill-0, white)"/>
<path id="Vector_2" d="M8.73273 13.9368C8.73273 13.9368 7.78562 13.3121 6.23657 11.7633C4.68754 10.214 4.06313 9.2668 4.06313 9.2668C3.85051 8.99212 3.84123 8.62023 4.0207 8.33654L0.672942 4.98895C0.608887 5.05244 0.543742 5.11762 0.472691 5.18892C-0.922978 6.58463 0.922938 10.8625 4.03002 13.9696C7.13706 17.0768 11.4151 18.923 12.8105 17.527C12.8818 17.4557 12.947 17.3911 13.0108 17.3271L9.663 13.9795C9.37961 14.1587 9.00769 14.1491 8.73273 13.9368Z" fill="var(--fill-0, white)"/>
<path id="Vector_3" d="M11.9446 12.8779C11.627 12.5605 11.1127 12.5605 10.7953 12.8779L10.0712 13.602L13.4035 16.9344C14.047 16.2909 14.122 16.2162 14.1276 16.2103C14.445 15.8929 14.445 15.3789 14.1276 15.0615L11.9446 12.8779Z" fill="var(--fill-0, white)"/>
<path id="Vector_4" d="M11.6188 9.49145L12.4935 9.35241C12.3457 8.42211 11.9112 7.52441 11.1936 6.80675C10.4759 6.08936 9.57854 5.65482 8.64796 5.50681L8.50867 6.38149C9.2628 6.50229 9.98495 6.85111 10.5672 7.43339C11.1492 8.0157 11.4983 8.73754 11.6188 9.49145Z" fill="var(--fill-0, white)"/>
<path id="Vector_5" d="M9.08246 2.75075L8.94507 3.62623C10.2624 3.83323 11.5263 4.44107 12.5428 5.45732C13.5591 6.47413 14.1669 7.73758 14.3741 9.05516L15.2491 8.91752C15.0148 7.42292 14.3213 5.98309 13.1692 4.83092C12.0168 3.67875 10.577 2.98556 9.08246 2.75075Z" fill="var(--fill-0, white)"/>
<path id="Vector_6" d="M15.1362 2.86418C13.5517 1.27944 11.5726 0.32443 9.51748 0L9.37956 0.875237C11.2583 1.17242 13.0602 2.04119 14.5098 3.49054C15.9585 4.93962 16.8279 6.74237 17.1247 8.62064L18 8.48272C17.6753 6.42722 16.7206 4.44837 15.1362 2.86418Z" fill="var(--fill-0, white)"/>
</g>
</svg>
